<?xml version="1.0" standalone="no"?><!DOCTYPE svg PUBLIC "-//W3C//DTD SVG 1.1//EN" "http://www.w3.org/Graphics/SVG/1.1/DTD/svg11.dtd"><svg t="1584259760508" class="icon" viewBox="0 0 1024 1024" version="1.1" xmlns="http://www.w3.org/2000/svg" p-id="2796" xmlns:xlink="http://www.w3.org/1999/xlink" width="16" height="16"><defs><style type="text/css"></style></defs><path d="M825.6 153.6H198.4C124.5 153.6 64 214.1 64 288v448c0 73.9 60.5 134.4 134.4 134.4h627.2c73.9 0 134.4-60.5 134.4-134.4V288c0-73.9-60.5-134.4-134.4-134.4z m-138.2 44.8l112 112H706l-112-112h93.4z m-156.8 0l112 112H526.7l-112-112h115.9z m-179.2 0l112 112H347.5l-112-112h115.9zM108.8 288c0-41.4 28.4-76.1 66.7-86.3l108.7 108.7H108.8V288z m806.4 448c0 49.4-40.2 89.6-89.6 89.6H198.4c-49.4 0-89.6-40.2-89.6-89.6V355.2h806.4V736z m0-425.6h-52.5l-112-112h74.9c49.4 0 89.6 40.2 89.6 89.6v22.4z" p-id="2797"></path><path d="M454 687.2l149.3-77.6c27.5-13.8 27.5-53 0-66.8L468 472.2c-31.2-15.6-68 7.1-68 42v139.6c0 27.8 29.2 45.8 54 33.4zM444.8 512l134.4 67.2-134.4 67.2V512z" p-id="2798"></path></svg>